PathFileType	4	(X/Y/Z)	s09c0201.trc
DataRate	CameraRate	NumFrames	NumMarkers	Units	OrigDataRate	OrigDataStartFrame	OrigNumFrames
200	200	4	50	mm	200	750	2000
Frame#	Time	racr			lacr			c7			jug			rlel			rdr			llel			ldr			s2			lic			ric			lasi			rasi			rpsi			lpsi			rgt			lgt			rth1			rth2			rth3			rth4			rlfc			rmfc			rsh1			rsh2			rsh3			rsh4			rlmal			rmmal			rcal			rtoe			rmt5			lth1			lth2			lth4			lth3			llfc			lmfc			llmal			lmmal			lcal			lmt5			lsh1			lsh2			lsh3			lsh4			ltoe			SBIKE			LBIKE			RBIKE			
		X1	Y1	Z1	X2	Y2	Z2	X3	Y3	Z3	X4	Y4	Z4	X5	Y5	Z5	X6	Y6	Z6	X7	Y7	Z7	X8	Y8	Z8	X9	Y9	Z9	X10	Y10	Z10	X11	Y11	Z11	X12	Y12	Z12	X13	Y13	Z13	X14	Y14	Z14	X15	Y15	Z15	X16	Y16	Z16	X17	Y17	Z17	X18	Y18	Z18	X19	Y19	Z19	X20	Y20	Z20	X21	Y21	Z21	X22	Y22	Z22	X23	Y23	Z23	X24	Y24	Z24	X25	Y25	Z25	X26	Y26	Z26	X27	Y27	Z27	X28	Y28	Z28	X29	Y29	Z29	X30	Y30	Z30	X31	Y31	Z31	X32	Y32	Z32	X33	Y33	Z33	X34	Y34	Z34	X35	Y35	Z35	X36	Y36	Z36	X37	Y37	Z37	X38	Y38	Z38	X39	Y39	Z39	X40	Y40	Z40	X41	Y41	Z41	X42	Y42	Z42	X43	Y43	Z43	X44	Y44	Z44	X45	Y45	Z45	X46	Y46	Z46	X47	Y47	Z47	X48	Y48	Z48	X49	Y49	Z49	X50	Y50	Z50	
750	3.7500	488.816256	1231.339043	-57.287057	568.151345	1210.325538	-402.596379	512.051929	1305.511780	-226.548437	489.536718	1171.973695	-236.661814	470.666228	1006.540250	55.669435	673.738720	907.386334	-41.424078	481.805351	1021.988400	-594.143093	662.333472	903.353935	-484.314755	26.534353	1137.943133	-278.243740	161.422551	1115.449709	-421.068246	164.597490	1151.433615	-129.670541	200.343568	1060.860703	-391.896807	203.548648	1092.010414	-141.578349	53.838323	1176.032981	-220.870576	57.223962	1169.246934	-329.933662	163.954667	1040.964714	-73.824683	118.848945	973.416062	-443.687366	284.396185	972.770869	-89.604642	366.100500	950.560346	-108.908621	425.932485	884.634028	-112.332232	376.777554	969.310386	-139.406219	478.720669	793.291477	-143.847279	447.752976	771.250191	-236.019328	394.321293	741.375835	-103.038504	337.257938	672.068874	-109.730412	256.178245	640.903557	-98.789640	351.453101	652.225627	-141.140966	175.314324	579.690669	-88.035134	175.091868	584.094852	-165.485006	90.008976	594.710646	-119.734341	290.850220	423.601691	-132.220423	219.040849	461.940513	-66.311748	193.506677	857.110788	-439.025993	255.432285	799.947448	-427.144050	286.304059	818.692070	-415.318573	281.545505	713.617199	-416.646021	318.125186	628.258543	-397.122115	320.531017	613.785296	-298.994851	280.971690	264.108879	-409.651021	298.346223	270.455162	-337.893899	217.064111	228.811765	-376.574381	385.058363	177.592598	-432.930692	301.476725	528.834625	-422.740308	318.743448	444.594071	-415.583437	290.845323	360.171156	-415.482910	343.842986	445.047373	-384.183536	475.120267	192.774998	-361.516674	-64.952379	852.596149	-242.001147	21.201237	83.704761	-442.236670	21.174102	84.004579	-44.081035	
751	3.7550	486.718702	1233.386396	-55.315957	568.510638	1212.588478	-399.456930	510.595163	1307.292598	-224.196769	489.108702	1173.765614	-233.615972	469.990859	1006.800752	55.264401	673.665739	907.382218	-41.494775	482.903867	1024.701826	-592.173341	662.427398	902.969616	-484.363558	27.076242	1136.514757	-280.816052	163.730549	1113.646229	-421.248825	163.063417	1151.001325	-130.560740	202.046599	1059.955454	-391.071325	202.508027	1091.517875	-141.280600	53.200392	1174.880452	-222.877083	57.801627	1167.583233	-331.970009	162.257397	1041.989650	-73.750383	120.102414	971.886530	-444.758622	283.730454	975.505782	-89.115911	365.826080	954.769981	-108.744284	427.182655	890.538748	-110.939003	375.956513	973.526227	-139.222000	482.210287	799.759381	-142.883778	451.999616	776.589428	-236.424566	397.505466	747.903936	-102.358537	341.013560	677.995330	-108.973308	260.102261	646.324074	-98.448283	356.369600	658.235204	-139.341535	179.934867	584.228607	-88.105576	180.542187	589.647971	-167.277823	94.070608	597.472702	-120.096747	298.393289	430.811029	-132.226506	225.962757	467.456393	-66.335928	193.016897	855.373749	-439.451776	254.283924	797.359657	-427.764751	285.277244	815.704607	-415.655341	279.325722	710.639498	-417.449967	315.110884	625.210648	-397.288017	317.031064	610.400773	-299.053765	276.050650	261.481767	-409.871954	293.833941	267.790563	-338.483235	211.517815	227.560982	-376.395049	378.383231	172.736395	-432.779018	298.026364	525.812896	-422.857089	314.810666	441.492415	-415.671403	286.502495	357.172098	-415.615363	339.802594	441.823775	-384.239228	468.684688	185.875074	-361.323672	-64.974775	852.608254	-241.962562	21.186841	83.726836	-442.231727	21.168067	83.987958	-44.064977	
752	3.7600	484.772618	1235.237877	-53.494686	568.648723	1214.894924	-396.469153	509.296849	1308.618021	-221.821387	488.624158	1175.321032	-230.478174	469.432440	1007.036511	54.993359	673.676831	907.413259	-41.536267	483.952684	1027.453137	-590.328419	662.430448	902.756773	-484.137766	27.107287	1134.889884	-282.964315	165.957973	1111.930221	-421.338398	161.681818	1150.348625	-131.137206	203.524039	1058.846293	-390.213741	201.403712	1090.766194	-141.035004	52.508684	1173.748193	-224.764352	58.550366	1166.301617	-333.829938	160.420498	1042.667348	-73.651573	121.451627	970.564343	-445.476815	282.946551	977.932262	-88.172650	365.189752	959.205805	-107.798330	428.535064	895.964641	-110.275364	375.041463	977.755342	-139.052835	484.928126	806.612418	-141.455420	455.893112	782.092573	-235.886240	400.492516	754.079637	-101.640798	345.528564	683.823192	-107.587075	264.011918	651.310543	-98.119655	360.469615	664.357186	-139.005730	184.576263	588.119032	-88.113646	183.604856	593.732743	-166.874101	98.304035	600.699603	-119.703180	306.105122	437.744522	-132.318008	232.942098	472.800762	-66.302678	192.647629	853.865296	-439.930916	253.400775	795.181844	-428.470587	284.517278	813.256997	-416.051729	277.525943	708.245430	-418.275431	312.600017	622.402219	-397.500075	314.345093	607.479276	-299.019133	270.895720	259.139194	-409.921988	289.145062	265.342946	-338.912239	205.862118	226.760015	-376.207625	371.476887	168.397899	-432.646019	294.925165	523.157649	-422.844619	311.109788	438.671082	-415.677795	282.188980	354.651027	-415.709024	335.985691	438.833053	-384.079314	462.064076	179.332446	-361.153963	-65.002022	852.649208	-241.904847	21.188908	83.763858	-442.225760	21.171999	83.996492	-44.055477	
753	3.7650	482.832280	1236.950063	-51.737775	568.763633	1217.015433	-393.608513	507.540503	1310.174928	-219.311342	488.281495	1176.594841	-227.511138	468.900356	1007.325052	54.919425	673.759490	907.481951	-41.552156	484.949869	1030.096589	-588.458790	662.367915	902.688198	-483.716912	26.926644	1133.428354	-283.304828	168.037674	1110.276096	-421.314706	160.680856	1149.611574	-131.132938	204.785893	1057.765196	-389.303685	200.330051	1089.920497	-140.509010	51.767082	1172.702178	-226.389130	59.086548	1164.699139	-335.602969	158.475690	1043.248468	-73.678479	122.647141	969.507992	-446.065393	281.867419	980.394227	-88.148460	364.540906	963.068664	-108.464746	429.320587	901.560995	-109.675058	374.039502	981.975485	-138.912784	487.833191	812.843938	-140.053858	459.544546	787.686513	-235.127041	403.344162	760.108915	-100.952594	349.040765	689.139339	-106.984137	267.927424	655.845800	-97.780812	364.713296	669.528987	-137.849366	189.270242	591.452622	-88.010861	189.806819	597.180871	-166.608676	102.791658	602.353755	-119.481692	313.990256	444.389057	-132.345497	240.088608	477.619406	-66.137907	192.339364	852.360321	-440.033012	252.839107	793.310231	-429.212237	283.934895	811.072623	-416.394337	276.134867	706.268320	-419.001440	310.627498	619.880924	-397.700611	312.243375	605.039906	-298.979656	265.667624	257.317948	-409.959402	284.347812	263.295843	-339.311685	200.078871	226.317475	-375.948248	364.316954	164.430009	-432.468634	292.237943	521.011240	-422.866854	307.656897	436.395549	-415.658298	277.920126	352.552925	-415.703548	332.487347	436.302269	-384.104436	455.125662	173.230642	-360.992881	-65.036326	852.681491	-241.790755	21.174434	83.772445	-442.213007	21.166721	84.008492	-44.044983	
